g BucketWater
v -0.07117031 0.36482477 -0.25834554
v -0.00037657208 0.36483413 -0.0010931293
v -0.19034249 0.3648679 -0.18934885
v 0.06547088 0.3647957 -0.25613463
v -0.26001158 0.36486784 -0.06684322
v 0.18903027 0.3648679 -0.19030292
v -0.25524873 0.36480513 0.05990743
v 0.25667894 0.36479893 -0.0707601
v -0.18938838 0.36486784 0.19002396
v 0.25965342 0.36486784 0.06656424
v -0.06641701 0.36483586 0.25799686
v 0.18625522 0.36477417 0.18548131
v 0.07097095 0.36483586 0.2586439
vt 0.4794893 0.6204859
vt 0.5169612 0.48361504
vt 0.4164103 0.58377635
vt 0.5518149 0.61930966
vt 0.37953377 0.51859736
vt 0.6172161 0.5842838
vt 0.38205475 0.45115983
vt 0.65302324 0.52068126
vt 0.41691527 0.38193142
vt 0.65459764 0.4476179
vt 0.48200527 0.34576637
vt 0.6157471 0.38434827
vt 0.554726 0.3454221
vn 0.0002545021 1 -0.00010636698
vn 4.999541E-05 1 8.881015E-06
vn 0.00020361519 1 -2.6133996E-05
vn -0.000114287905 1 -0.00018012585
vn 5.9392783E-05 1 0.00027834912
vn -9.0724214E-05 1 8.760794E-05
vn -9.846232E-05 1 6.38747E-05
vn 0.00012727901 1 -3.5768502E-05
vn 1.7556245E-05 1 -0.00015908355
vn -0.00014246689 1 4.9126047E-05
vn 0.00011522308 1 2.2744103E-05
vn 8.3524916E-05 1 0.00023786025
vn 0.00022387976 1 -6.8106885E-05
g BucketWater_0
f 3/3/3 2/2/2 1/1/1
f 1/1/1 2/2/2 4/4/4
f 5/5/5 2/2/2 3/3/3
f 4/4/4 2/2/2 6/6/6
f 7/7/7 2/2/2 5/5/5
f 6/6/6 2/2/2 8/8/8
f 9/9/9 2/2/2 7/7/7
f 8/8/8 2/2/2 10/10/10
f 11/11/11 2/2/2 9/9/9
f 10/10/10 2/2/2 12/12/12
f 13/13/13 2/2/2 11/11/11
f 12/12/12 2/2/2 13/13/13
